<svg width="18" height="17" viewBox="0 0 18 17" fill="none" xmlns="http://www.w3.org/2000/svg">
<path d="M0.28125 5.92969C0.0703125 6.10547 0 6.31641 0 6.5625C0 6.84375 0.0703125 7.05469 0.28125 7.19531L6.46875 12.5391C6.64453 12.7148 6.85547 12.7852 7.06641 12.75C7.27734 12.75 7.48828 12.6445 7.62891 12.5039C7.76953 12.3633 7.875 12.1523 7.875 11.9062V8.8125C9.77344 8.84766 11.25 9.05859 12.2695 9.41016C13.3945 9.83203 14.0977 10.5 14.4141 11.4492C14.6953 12.3984 14.5898 13.6992 14.0977 15.3516C14.0273 15.5625 14.0273 15.7031 14.1328 15.8438C14.2383 15.9844 14.3789 16.0898 14.5547 16.125C14.7305 16.1602 14.9062 16.125 15.082 15.9844C15.8906 15.4219 16.5586 14.6484 17.1211 13.6641C17.6836 12.6445 18 11.625 18 10.5703C18 8.10938 17.0156 6.38672 15.0469 5.33203C13.4648 4.52344 11.0742 4.10156 7.875 4.03125V1.21875C7.875 1.00781 7.76953 0.796875 7.62891 0.65625C7.48828 0.515625 7.27734 0.410156 7.06641 0.375C6.85547 0.375 6.64453 0.445312 6.46875 0.585938L0.28125 5.92969Z" fill="#097AE6"/>
</svg>
